# xmcd CD database file
#
# Track frame offsets:
#	150
#	15870
#	24280
#	33815
#	45107
#	56910
#	65637
#	76735
#	85697
#	95485
#	103777
#	114587
#	122765
#	135217
#	146205
#	159735
#	169462
#	180065
#	190635
#	200320
#	212060
#	222590
#	232442
#	242605
#	254352
#	268376
#	282006
#	291779
#	302445
#	314407
#	326007
#	339455
#
# Disc length: 4690 seconds
#
# Revision: 0
# Processed by: cddbd v1.5.2PL0 Copyright (c) Steve Scherf et al.
# Submitted via: CDex 1.51
#
DISCID=c5125020
DTITLE=Buddy Morrow - The essential Collection
DYEAR=2011
DGENRE=Jazz
TTITLE0=This Is The Naked City
TTITLE1=Rawhide
TTITLE2=Riff Blues
TTITLE3=Richard Diamond
TTITLE4=Perry Mason Theme
TTITLE5=Parade Of The Chessmen
TTITLE6=M Squad
TTITLE7=Sea Hunt Theme
TTITLE8=Black Saddle
TTITLE9=Waterfront
TTITLE10=Highway Patrol
TTITLE11=Peter Gunn
TTITLE12=Men Into Space
TTITLE13=Hawaiian Eye
TTITLE14=Staccato's Theme
TTITLE15=The Deputy
TTITLE16=Riverboat Theme
TTITLE17=Bourbon Street Beat
TTITLE18=Bonanza
TTITLE19=Twilight Zone
TTITLE20=San Francisco Blues
TTITLE21=The Untouchables
TTITLE22=Markham Theme
TTITLE23=Internaational Detective
TTITLE24=Intermezzo
TTITLE25=Body And Soul
TTITLE26=Melancholy Baby
TTITLE27=Let's Do It
TTITLE28=Something To Remember You By
TTITLE29=September Song
TTITLE30=The Touch Of Your Lips
TTITLE31=Blue Prelude
EXTD=YEAR: 2011
EXTT0=
EXTT1=
EXTT2=
EXTT3=
EXTT4=
EXTT5=
EXTT6=
EXTT7=
EXTT8=
EXTT9=
EXTT10=
EXTT11=
EXTT12=
EXTT13=
EXTT14=
EXTT15=
EXTT16=
EXTT17=
EXTT18=
EXTT19=
EXTT20=
EXTT21=
EXTT22=
EXTT23=
EXTT24=
EXTT25=
EXTT26=
EXTT27=
EXTT28=
EXTT29=
EXTT30=
EXTT31=
PLAYORDER=
